<svg width="24" height="24" viewBox="0 0 24 24" fill="none" xmlns="http://www.w3.org/2000/svg">
<g clip-path="url(#clip0_30_2377)">
<path fill-rule="evenodd" clip-rule="evenodd" d="M1.65025 3.78405C2.00961 3.18788 3.99083 1.02368 5.40266 1.089C5.82504 1.12518 6.19841 1.37951 6.50178 1.67585H6.50295C7.19835 2.35719 9.19357 4.92857 9.30558 5.46992C9.58212 6.79761 7.99878 7.56295 8.48299 8.90115C9.71748 11.9216 11.8446 14.0486 14.8665 15.2817C16.2037 15.767 16.9691 14.1851 18.2969 14.4604C18.8383 14.5736 21.4111 16.5674 22.0913 17.2639C22.3866 17.5661 22.6432 17.9406 22.6782 18.363C22.7307 19.8504 20.4322 21.8584 19.9841 22.115C18.927 22.8722 17.5478 22.8582 15.8665 22.0766C11.1748 20.1247 3.67696 12.7687 1.68875 7.90013C0.927998 6.22826 0.876658 4.83991 1.65025 3.78405Z" stroke="#E42016" stroke-linecap="round" stroke-linejoin="round"/>
<path opacity="0.5" d="M14.8009 1.37158C19.0067 1.83851 22.3274 5.15586 22.8 9.36048" stroke="#E42016" stroke-linecap="round" stroke-linejoin="round"/>
<path opacity="0.5" d="M14.8009 5.39667C16.8118 5.78861 18.383 7.35981 18.7749 9.37067" stroke="#E42016" stroke-linecap="round" stroke-linejoin="round"/>
</g>
<defs>
<clipPath id="clip0_30_2377">
<rect width="24" height="24" fill="white"/>
</clipPath>
</defs>
</svg>
