<svg width="48" height="48" viewBox="0 0 48 48" fill="none" xmlns="http://www.w3.org/2000/svg">
<rect width="48" height="48" rx="24" fill="#41403E"/>
<path d="M24 19.1925C21.3399 19.1925 19.193 21.3394 19.193 23.9995C19.193 26.6597 21.3399 28.8066 24 28.8066C26.6602 28.8066 28.807 26.6597 28.807 23.9995C28.807 21.3394 26.6602 19.1925 24 19.1925ZM24 27.1237C22.2797 27.1237 20.8758 25.7198 20.8758 23.9995C20.8758 22.2792 22.2797 20.8753 24 20.8753C25.7203 20.8753 27.1242 22.2792 27.1242 23.9995C27.1242 25.7198 25.7203 27.1237 24 27.1237ZM29.0039 17.8753C28.3828 17.8753 27.8813 18.3769 27.8813 18.998C27.8813 19.6191 28.3828 20.1206 29.0039 20.1206C29.625 20.1206 30.1266 19.6214 30.1266 18.998C30.1268 18.8505 30.0979 18.7044 30.0415 18.5681C29.9851 18.4318 29.9025 18.308 29.7982 18.2037C29.6939 18.0994 29.5701 18.0167 29.4338 17.9604C29.2975 17.904 29.1514 17.8751 29.0039 17.8753ZM33.3703 23.9995C33.3703 22.7058 33.382 21.4237 33.3094 20.1323C33.2367 18.6323 32.8946 17.3011 31.7977 16.2042C30.6985 15.105 29.3695 14.7652 27.8695 14.6925C26.5758 14.6198 25.2938 14.6316 24.0024 14.6316C22.7086 14.6316 21.4266 14.6198 20.1352 14.6925C18.6352 14.7652 17.3039 15.1073 16.2071 16.2042C15.1078 17.3034 14.768 18.6323 14.6953 20.1323C14.6227 21.4261 14.6344 22.7081 14.6344 23.9995C14.6344 25.2909 14.6227 26.5753 14.6953 27.8667C14.768 29.3667 15.1102 30.698 16.2071 31.7948C17.3063 32.8941 18.6352 33.2339 20.1352 33.3066C21.4289 33.3792 22.711 33.3675 24.0024 33.3675C25.2961 33.3675 26.5781 33.3792 27.8695 33.3066C29.3695 33.2339 30.7008 32.8917 31.7977 31.7948C32.8969 30.6956 33.2367 29.3667 33.3094 27.8667C33.3844 26.5753 33.3703 25.2933 33.3703 23.9995ZM31.3078 29.5261C31.1367 29.9527 30.9305 30.2714 30.6 30.5995C30.2695 30.93 29.9531 31.1362 29.5266 31.3073C28.2938 31.7972 25.3664 31.687 24 31.687C22.6336 31.687 19.7039 31.7972 18.4711 31.3097C18.0446 31.1386 17.7258 30.9323 17.3977 30.6019C17.0672 30.2714 16.861 29.955 16.6899 29.5284C16.2024 28.2933 16.3125 25.3659 16.3125 23.9995C16.3125 22.6331 16.2024 19.7034 16.6899 18.4706C16.861 18.0441 17.0672 17.7253 17.3977 17.3972C17.7281 17.0691 18.0446 16.8605 18.4711 16.6894C19.7039 16.2019 22.6336 16.312 24 16.312C25.3664 16.312 28.2961 16.2019 29.5289 16.6894C29.9555 16.8605 30.2742 17.0667 30.6024 17.3972C30.9328 17.7277 31.1391 18.0441 31.3102 18.4706C31.7977 19.7034 31.6875 22.6331 31.6875 23.9995C31.6875 25.3659 31.7977 28.2933 31.3078 29.5261Z" fill="white"/>
</svg>
