<svg width="18" height="17" viewBox="0 0 18 17" fill="none" xmlns="http://www.w3.org/2000/svg">
<path d="M8.52772 0.358695C8.68337 -0.089085 9.31663 -0.0890864 9.47228 0.358694L11.2369 5.43529C11.3056 5.63282 11.4899 5.76676 11.699 5.77102L17.0724 5.88052C17.5464 5.89018 17.7421 6.49245 17.3643 6.77886L13.0815 10.0259C12.9148 10.1522 12.8444 10.3689 12.905 10.5691L14.4613 15.7134C14.5986 16.1671 14.0863 16.5393 13.6971 16.2686L9.28559 13.1987C9.11393 13.0793 8.88607 13.0793 8.71441 13.1987L4.30285 16.2686C3.91373 16.5393 3.40141 16.1671 3.53868 15.7134L5.09502 10.5691C5.15558 10.3689 5.08517 10.1522 4.91852 10.0259L0.635688 6.77886C0.257922 6.49246 0.453611 5.89018 0.927573 5.88052L6.301 5.77102C6.51009 5.76676 6.69443 5.63282 6.76309 5.43529L8.52772 0.358695Z" fill="#DE8675"/>
</svg>
