<svg width="48" height="48" viewBox="0 0 48 48" fill="none" xmlns="http://www.w3.org/2000/svg">
<rect width="48" height="48" rx="24" fill="#41403E"/>
<path d="M33.579 18.8548C33.719 18.3898 33.579 18.0488 32.917 18.0488H30.724C30.166 18.0488 29.911 18.3438 29.771 18.6678C29.771 18.6678 28.656 21.3868 27.076 23.1498C26.566 23.6628 26.333 23.8248 26.055 23.8248C25.916 23.8248 25.714 23.6628 25.714 23.1978V18.8548C25.714 18.2968 25.553 18.0488 25.088 18.0488H21.642C21.294 18.0488 21.084 18.3068 21.084 18.5528C21.084 19.0808 21.874 19.2028 21.955 20.6908V23.9188C21.955 24.6258 21.828 24.7548 21.548 24.7548C20.805 24.7548 18.997 22.0258 17.924 18.9018C17.715 18.2948 17.504 18.0498 16.944 18.0498H14.752C14.125 18.0498 14 18.3448 14 18.6688C14 19.2508 14.743 22.1308 17.461 25.9398C19.273 28.5408 21.824 29.9508 24.148 29.9508C25.541 29.9508 25.713 29.6378 25.713 29.0978V27.1318C25.713 26.5058 25.846 26.3798 26.287 26.3798C26.611 26.3798 27.169 26.5438 28.47 27.7968C29.956 29.2828 30.202 29.9498 31.037 29.9498H33.229C33.855 29.9498 34.168 29.6368 33.988 29.0188C33.791 28.4038 33.081 27.5088 32.139 26.4498C31.627 25.8458 30.862 25.1958 30.629 24.8708C30.304 24.4518 30.398 24.2668 30.629 23.8948C30.63 23.8958 33.301 20.1338 33.579 18.8548Z" fill="white"/>
</svg>
