<svg width="22" height="20" viewBox="0 0 22 20" fill="none" xmlns="http://www.w3.org/2000/svg">
<path d="M18.5 8.25C18.4993 7.44495 18.2827 6.65482 17.8729 5.9619C17.4631 5.26898 16.8749 4.69863 16.1698 4.31025C16.7012 3.75587 16.9986 3.01798 17 2.25H15.5C15.4996 2.6477 15.3414 3.029 15.0602 3.31022C14.779 3.59144 14.3977 3.7496 14 3.75C12.8213 3.75156 11.6902 4.21522 10.8496 5.04142C10.0089 5.86763 9.52574 6.99052 9.50375 8.169C8.54216 7.18959 8.00237 5.87255 8 4.5C7.99803 3.83671 7.77607 3.19281 7.3689 2.66919C6.96173 2.14557 6.39236 1.77182 5.75 1.6065V0H4.25V1.6065C3.60764 1.77182 3.03827 2.14557 2.6311 2.66919C2.22393 3.19281 2.00197 3.83671 2 4.5V8.25H0.5V9C0.5 11.7848 1.60625 14.4555 3.57538 16.4246C5.54451 18.3938 8.21523 19.5 11 19.5C13.7848 19.5 16.4555 18.3938 18.4246 16.4246C20.3938 14.4555 21.5 11.7848 21.5 9V8.25H18.5ZM14 5.25C14.7953 5.25099 15.5578 5.56738 16.1202 6.12978C16.6826 6.69217 16.999 7.45466 17 8.25H11C11.001 7.45466 11.3174 6.69217 11.8798 6.12978C12.4422 5.56738 13.2047 5.25099 14 5.25ZM3.5 4.5C3.5 4.10218 3.65804 3.72064 3.93934 3.43934C4.22064 3.15804 4.60218 3 5 3C5.39782 3 5.77936 3.15804 6.06066 3.43934C6.34196 3.72064 6.5 4.10218 6.5 4.5C6.50299 5.83623 6.90291 7.14145 7.649 8.25H3.5V4.5ZM11 18C8.74364 17.9972 6.5704 17.1482 4.90971 15.6206C3.24902 14.0931 2.2217 11.9983 2.03075 9.75H19.97C19.779 11.9984 18.7516 14.0934 17.0908 15.6209C15.4299 17.1484 13.2565 17.9974 11 18Z" fill="#D0CEC8"/>
</svg>
