<svg width="26" height="24" viewBox="0 0 26 24" fill="none" xmlns="http://www.w3.org/2000/svg">
<path d="M25.075 6.20893V6.2089C25.0749 5.90847 24.8314 5.66505 24.531 5.66505H1.46888C1.16866 5.66505 0.925 5.90846 0.925 6.20893C0.925 6.50929 1.16865 6.75282 1.46888 6.75282H24.5311C24.8313 6.75282 25.075 6.50929 25.075 6.20893Z" fill="#D0CEC8" stroke="#D0CEC8" stroke-width="0.15"/>
<path d="M1.56366 5.07257L1.5635 5.07258C1.54709 5.07402 1.53073 5.07474 1.51444 5.07474C1.23599 5.07474 0.998756 4.86207 0.973364 4.57947L1.56366 5.07257ZM1.56366 5.07257L24.5335 3.01063L24.5335 3.01063M1.56366 5.07257L24.5335 3.01063M24.5335 3.01063C24.8326 2.98368 25.0535 2.7194 25.0266 2.4202C24.9996 2.12066 24.7332 1.901 24.4363 1.9271L24.4362 1.92711M24.5335 3.01063L24.4362 1.92711M24.4362 1.92711L1.46648 3.98905L1.46645 3.98905M24.4362 1.92711L1.46645 3.98905M1.46645 3.98905C1.16739 4.016 0.946416 4.28015 0.973362 4.57946L1.46645 3.98905Z" fill="#D0CEC8" stroke="#D0CEC8" stroke-width="0.15"/>
<mask id="path-3-outside-1_201_1978" maskUnits="userSpaceOnUse" x="2.87842" y="7.04559" width="20" height="16" fill="black">
<rect fill="white" x="2.87842" y="7.04559" width="20" height="16"/>
<path d="M22.1075 11.0652C22.1075 10.3583 21.7068 9.70856 20.9789 9.2353L20.1805 8.71641C19.515 8.28379 18.6394 8.04559 17.715 8.04559C16.7905 8.04559 15.9148 8.28368 15.2491 8.71641L14.4512 9.2353C13.7231 9.70846 13.3219 10.3582 13.3219 11.0652C13.3219 11.0782 13.3243 11.0908 13.3247 11.1037C13.3207 11.1285 13.317 11.1536 13.317 11.1795V13.5783C13.2122 13.5719 13.1064 13.5681 13.0001 13.5681C12.8908 13.5681 12.7821 13.5717 12.6744 13.5785V11.1795C12.6744 11.1536 12.6708 11.1286 12.6667 11.1037C12.6671 11.0908 12.6695 11.0782 12.6695 11.0652C12.6695 10.3583 12.2684 9.70846 11.5403 9.2353L10.7423 8.71641C10.0766 8.28379 9.20096 8.04559 8.27643 8.04559C7.35211 8.04559 6.47644 8.28368 5.81094 8.71641L5.01259 9.2353C4.28468 9.70856 3.88394 10.3582 3.88394 11.0652C3.88394 11.0779 3.88634 11.0904 3.88655 11.1031C3.88186 11.1296 3.87842 11.1567 3.87842 11.1845V14.6694C3.87842 14.7504 3.89936 14.8298 3.93906 14.9002C4.26592 15.4786 4.75387 15.8506 5.01561 16.0208L5.81438 16.5397C6.50572 16.9891 7.39316 17.2137 8.28028 17.2137C8.38771 17.2137 8.49503 17.209 8.60204 17.2019V20.1203C8.60204 20.1992 8.62194 20.277 8.65987 20.3461C8.9313 20.84 9.32204 21.2764 9.73236 21.5432L10.5305 22.062C11.2218 22.5114 12.1089 22.7361 12.9964 22.7361C13.8836 22.7361 14.7711 22.5114 15.4626 22.062L16.261 21.5432C16.5227 21.373 17.0107 21.001 17.3375 20.4226C17.3772 20.3522 17.3982 20.2728 17.3982 20.1918V17.2028C17.5024 17.2094 17.6066 17.2137 17.7112 17.2137C18.5983 17.2137 19.4857 16.9891 20.1771 16.5397L20.9758 16.0208C21.2376 15.8506 21.7255 15.4786 22.0524 14.9002C22.0921 14.8298 22.113 14.7504 22.113 14.6694V11.1845C22.113 11.1566 22.1096 11.1296 22.1049 11.1031C22.105 11.0904 22.1075 11.0779 22.1075 11.0652ZM14.9622 10.0216L15.7601 9.50278C16.2756 9.16778 16.9697 8.98346 17.715 8.98346C18.46 8.98346 19.1543 9.16789 19.6695 9.50278L20.4679 10.0216C20.9205 10.3159 21.1698 10.6865 21.1698 11.0652C21.1698 11.4438 20.9204 11.8144 20.4681 12.1087L19.6693 12.6277C19.1543 12.9625 18.4601 13.147 17.7148 13.147C16.9695 13.147 16.2755 12.9625 15.7603 12.6277L14.962 12.1087C14.5091 11.8145 14.2597 11.4437 14.2597 11.0652C14.2597 10.6867 14.5091 10.3159 14.9622 10.0216ZM12.9999 14.5059C13.7453 14.5059 14.4394 14.6903 14.9546 15.0252L15.7529 15.544C16.2057 15.8384 16.455 16.2088 16.455 16.5876C16.455 16.9663 16.2056 17.3367 15.7529 17.631L14.9546 18.1499C14.4393 18.4849 13.7452 18.6694 12.9997 18.6694C12.2545 18.6694 11.5604 18.4849 11.0452 18.1501L10.2471 17.631C9.79404 17.3368 9.54481 16.9663 9.54481 16.5876C9.54481 16.2088 9.79415 15.8385 10.2471 15.544L11.045 15.0252C11.5606 14.6903 12.2547 14.5059 12.9999 14.5059ZM5.52357 10.0216L6.32192 9.50278C6.83717 9.16778 7.53132 8.98346 8.27643 8.98346C9.02164 8.98346 9.71579 9.16789 10.2314 9.50278L11.0293 10.0216C11.4823 10.3159 11.7318 10.6867 11.7318 11.0652C11.7318 11.4437 11.4822 11.8144 11.0295 12.1087L10.2311 12.6277C9.71611 12.9625 9.02195 13.147 8.27664 13.147C7.53132 13.147 6.83727 12.9625 6.32213 12.6277L5.52336 12.1087C5.07094 11.8145 4.82171 11.4438 4.82171 11.0652C4.82171 10.6865 5.07094 10.3159 5.52357 10.0216ZM8.64205 16.2503C7.81442 16.3191 6.94543 16.1563 6.32515 15.7533L5.52659 15.2344C5.353 15.1217 5.04281 14.8878 4.81618 14.5388V12.7536C4.87943 12.8016 4.94299 12.8497 5.01238 12.8948L5.81115 13.4137C6.47644 13.8463 7.35211 14.0846 8.27664 14.0846C9.20117 14.0846 10.0768 13.8463 10.7423 13.4137L11.5405 12.8948C11.6099 12.8496 11.6733 12.8015 11.7367 12.7536V13.7255C11.2936 13.8391 10.8844 14.0112 10.5341 14.2388L9.73601 14.7577C9.12584 15.1545 8.74917 15.6761 8.64205 16.2503ZM16.4603 20.0612C16.2336 20.4102 15.9235 20.644 15.7497 20.7568L14.9515 21.2757C13.8912 21.9647 12.1007 21.9643 11.0417 21.2759L10.2435 20.757C9.98952 20.5917 9.73194 20.312 9.53981 19.9949V18.2761C9.60305 18.3241 9.66661 18.3722 9.73601 18.4173L10.5341 18.9362C11.1996 19.3688 12.0753 19.6071 12.9998 19.6071C13.9245 19.6071 14.8001 19.3688 15.4659 18.9362L16.2642 18.4173C16.3336 18.372 16.3971 18.324 16.4604 18.2761V20.0612H16.4603ZM21.1752 14.5388C20.9484 14.8878 20.6384 15.1217 20.4648 15.2344L19.6662 15.7533C19.0481 16.155 18.1831 16.3182 17.3581 16.251C17.2513 15.6763 16.8745 15.1546 16.2642 14.7577L15.4659 14.2388C15.1134 14.0097 14.7011 13.8371 14.2548 13.7235V12.7536C14.318 12.8016 14.3816 12.8497 14.451 12.8948L15.2491 13.4137C15.9146 13.8463 16.7903 14.0846 17.7148 14.0846C18.6394 14.0846 19.515 13.8463 20.1803 13.4137L20.9791 12.8948C21.0485 12.8496 21.1119 12.8015 21.1753 12.7536V14.5388H21.1752Z"/>
</mask>
<path d="M22.1075 11.0652C22.1075 10.3583 21.7068 9.70856 20.9789 9.2353L20.1805 8.71641C19.515 8.28379 18.6394 8.04559 17.715 8.04559C16.7905 8.04559 15.9148 8.28368 15.2491 8.71641L14.4512 9.2353C13.7231 9.70846 13.3219 10.3582 13.3219 11.0652C13.3219 11.0782 13.3243 11.0908 13.3247 11.1037C13.3207 11.1285 13.317 11.1536 13.317 11.1795V13.5783C13.2122 13.5719 13.1064 13.5681 13.0001 13.5681C12.8908 13.5681 12.7821 13.5717 12.6744 13.5785V11.1795C12.6744 11.1536 12.6708 11.1286 12.6667 11.1037C12.6671 11.0908 12.6695 11.0782 12.6695 11.0652C12.6695 10.3583 12.2684 9.70846 11.5403 9.2353L10.7423 8.71641C10.0766 8.28379 9.20096 8.04559 8.27643 8.04559C7.35211 8.04559 6.47644 8.28368 5.81094 8.71641L5.01259 9.2353C4.28468 9.70856 3.88394 10.3582 3.88394 11.0652C3.88394 11.0779 3.88634 11.0904 3.88655 11.1031C3.88186 11.1296 3.87842 11.1567 3.87842 11.1845V14.6694C3.87842 14.7504 3.89936 14.8298 3.93906 14.9002C4.26592 15.4786 4.75387 15.8506 5.01561 16.0208L5.81438 16.5397C6.50572 16.9891 7.39316 17.2137 8.28028 17.2137C8.38771 17.2137 8.49503 17.209 8.60204 17.2019V20.1203C8.60204 20.1992 8.62194 20.277 8.65987 20.3461C8.9313 20.84 9.32204 21.2764 9.73236 21.5432L10.5305 22.062C11.2218 22.5114 12.1089 22.7361 12.9964 22.7361C13.8836 22.7361 14.7711 22.5114 15.4626 22.062L16.261 21.5432C16.5227 21.373 17.0107 21.001 17.3375 20.4226C17.3772 20.3522 17.3982 20.2728 17.3982 20.1918V17.2028C17.5024 17.2094 17.6066 17.2137 17.7112 17.2137C18.5983 17.2137 19.4857 16.9891 20.1771 16.5397L20.9758 16.0208C21.2376 15.8506 21.7255 15.4786 22.0524 14.9002C22.0921 14.8298 22.113 14.7504 22.113 14.6694V11.1845C22.113 11.1566 22.1096 11.1296 22.1049 11.1031C22.105 11.0904 22.1075 11.0779 22.1075 11.0652ZM14.9622 10.0216L15.7601 9.50278C16.2756 9.16778 16.9697 8.98346 17.715 8.98346C18.46 8.98346 19.1543 9.16789 19.6695 9.50278L20.4679 10.0216C20.9205 10.3159 21.1698 10.6865 21.1698 11.0652C21.1698 11.4438 20.9204 11.8144 20.4681 12.1087L19.6693 12.6277C19.1543 12.9625 18.4601 13.147 17.7148 13.147C16.9695 13.147 16.2755 12.9625 15.7603 12.6277L14.962 12.1087C14.5091 11.8145 14.2597 11.4437 14.2597 11.0652C14.2597 10.6867 14.5091 10.3159 14.9622 10.0216ZM12.9999 14.5059C13.7453 14.5059 14.4394 14.6903 14.9546 15.0252L15.7529 15.544C16.2057 15.8384 16.455 16.2088 16.455 16.5876C16.455 16.9663 16.2056 17.3367 15.7529 17.631L14.9546 18.1499C14.4393 18.4849 13.7452 18.6694 12.9997 18.6694C12.2545 18.6694 11.5604 18.4849 11.0452 18.1501L10.2471 17.631C9.79404 17.3368 9.54481 16.9663 9.54481 16.5876C9.54481 16.2088 9.79415 15.8385 10.2471 15.544L11.045 15.0252C11.5606 14.6903 12.2547 14.5059 12.9999 14.5059ZM5.52357 10.0216L6.32192 9.50278C6.83717 9.16778 7.53132 8.98346 8.27643 8.98346C9.02164 8.98346 9.71579 9.16789 10.2314 9.50278L11.0293 10.0216C11.4823 10.3159 11.7318 10.6867 11.7318 11.0652C11.7318 11.4437 11.4822 11.8144 11.0295 12.1087L10.2311 12.6277C9.71611 12.9625 9.02195 13.147 8.27664 13.147C7.53132 13.147 6.83727 12.9625 6.32213 12.6277L5.52336 12.1087C5.07094 11.8145 4.82171 11.4438 4.82171 11.0652C4.82171 10.6865 5.07094 10.3159 5.52357 10.0216ZM8.64205 16.2503C7.81442 16.3191 6.94543 16.1563 6.32515 15.7533L5.52659 15.2344C5.353 15.1217 5.04281 14.8878 4.81618 14.5388V12.7536C4.87943 12.8016 4.94299 12.8497 5.01238 12.8948L5.81115 13.4137C6.47644 13.8463 7.35211 14.0846 8.27664 14.0846C9.20117 14.0846 10.0768 13.8463 10.7423 13.4137L11.5405 12.8948C11.6099 12.8496 11.6733 12.8015 11.7367 12.7536V13.7255C11.2936 13.8391 10.8844 14.0112 10.5341 14.2388L9.73601 14.7577C9.12584 15.1545 8.74917 15.6761 8.64205 16.2503ZM16.4603 20.0612C16.2336 20.4102 15.9235 20.644 15.7497 20.7568L14.9515 21.2757C13.8912 21.9647 12.1007 21.9643 11.0417 21.2759L10.2435 20.757C9.98952 20.5917 9.73194 20.312 9.53981 19.9949V18.2761C9.60305 18.3241 9.66661 18.3722 9.73601 18.4173L10.5341 18.9362C11.1996 19.3688 12.0753 19.6071 12.9998 19.6071C13.9245 19.6071 14.8001 19.3688 15.4659 18.9362L16.2642 18.4173C16.3336 18.372 16.3971 18.324 16.4604 18.2761V20.0612H16.4603ZM21.1752 14.5388C20.9484 14.8878 20.6384 15.1217 20.4648 15.2344L19.6662 15.7533C19.0481 16.155 18.1831 16.3182 17.3581 16.251C17.2513 15.6763 16.8745 15.1546 16.2642 14.7577L15.4659 14.2388C15.1134 14.0097 14.7011 13.8371 14.2548 13.7235V12.7536C14.318 12.8016 14.3816 12.8497 14.451 12.8948L15.2491 13.4137C15.9146 13.8463 16.7903 14.0846 17.7148 14.0846C18.6394 14.0846 19.515 13.8463 20.1803 13.4137L20.9791 12.8948C21.0485 12.8496 21.1119 12.8015 21.1753 12.7536V14.5388H21.1752Z" fill="#D0CEC8"/>
<path d="M22.1075 11.0652C22.1075 10.3583 21.7068 9.70856 20.9789 9.2353L20.1805 8.71641C19.515 8.28379 18.6394 8.04559 17.715 8.04559C16.7905 8.04559 15.9148 8.28368 15.2491 8.71641L14.4512 9.2353C13.7231 9.70846 13.3219 10.3582 13.3219 11.0652C13.3219 11.0782 13.3243 11.0908 13.3247 11.1037C13.3207 11.1285 13.317 11.1536 13.317 11.1795V13.5783C13.2122 13.5719 13.1064 13.5681 13.0001 13.5681C12.8908 13.5681 12.7821 13.5717 12.6744 13.5785V11.1795C12.6744 11.1536 12.6708 11.1286 12.6667 11.1037C12.6671 11.0908 12.6695 11.0782 12.6695 11.0652C12.6695 10.3583 12.2684 9.70846 11.5403 9.2353L10.7423 8.71641C10.0766 8.28379 9.20096 8.04559 8.27643 8.04559C7.35211 8.04559 6.47644 8.28368 5.81094 8.71641L5.01259 9.2353C4.28468 9.70856 3.88394 10.3582 3.88394 11.0652C3.88394 11.0779 3.88634 11.0904 3.88655 11.1031C3.88186 11.1296 3.87842 11.1567 3.87842 11.1845V14.6694C3.87842 14.7504 3.89936 14.8298 3.93906 14.9002C4.26592 15.4786 4.75387 15.8506 5.01561 16.0208L5.81438 16.5397C6.50572 16.9891 7.39316 17.2137 8.28028 17.2137C8.38771 17.2137 8.49503 17.209 8.60204 17.2019V20.1203C8.60204 20.1992 8.62194 20.277 8.65987 20.3461C8.9313 20.84 9.32204 21.2764 9.73236 21.5432L10.5305 22.062C11.2218 22.5114 12.1089 22.7361 12.9964 22.7361C13.8836 22.7361 14.7711 22.5114 15.4626 22.062L16.261 21.5432C16.5227 21.373 17.0107 21.001 17.3375 20.4226C17.3772 20.3522 17.3982 20.2728 17.3982 20.1918V17.2028C17.5024 17.2094 17.6066 17.2137 17.7112 17.2137C18.5983 17.2137 19.4857 16.9891 20.1771 16.5397L20.9758 16.0208C21.2376 15.8506 21.7255 15.4786 22.0524 14.9002C22.0921 14.8298 22.113 14.7504 22.113 14.6694V11.1845C22.113 11.1566 22.1096 11.1296 22.1049 11.1031C22.105 11.0904 22.1075 11.0779 22.1075 11.0652ZM14.9622 10.0216L15.7601 9.50278C16.2756 9.16778 16.9697 8.98346 17.715 8.98346C18.46 8.98346 19.1543 9.16789 19.6695 9.50278L20.4679 10.0216C20.9205 10.3159 21.1698 10.6865 21.1698 11.0652C21.1698 11.4438 20.9204 11.8144 20.4681 12.1087L19.6693 12.6277C19.1543 12.9625 18.4601 13.147 17.7148 13.147C16.9695 13.147 16.2755 12.9625 15.7603 12.6277L14.962 12.1087C14.5091 11.8145 14.2597 11.4437 14.2597 11.0652C14.2597 10.6867 14.5091 10.3159 14.9622 10.0216ZM12.9999 14.5059C13.7453 14.5059 14.4394 14.6903 14.9546 15.0252L15.7529 15.544C16.2057 15.8384 16.455 16.2088 16.455 16.5876C16.455 16.9663 16.2056 17.3367 15.7529 17.631L14.9546 18.1499C14.4393 18.4849 13.7452 18.6694 12.9997 18.6694C12.2545 18.6694 11.5604 18.4849 11.0452 18.1501L10.2471 17.631C9.79404 17.3368 9.54481 16.9663 9.54481 16.5876C9.54481 16.2088 9.79415 15.8385 10.2471 15.544L11.045 15.0252C11.5606 14.6903 12.2547 14.5059 12.9999 14.5059ZM5.52357 10.0216L6.32192 9.50278C6.83717 9.16778 7.53132 8.98346 8.27643 8.98346C9.02164 8.98346 9.71579 9.16789 10.2314 9.50278L11.0293 10.0216C11.4823 10.3159 11.7318 10.6867 11.7318 11.0652C11.7318 11.4437 11.4822 11.8144 11.0295 12.1087L10.2311 12.6277C9.71611 12.9625 9.02195 13.147 8.27664 13.147C7.53132 13.147 6.83727 12.9625 6.32213 12.6277L5.52336 12.1087C5.07094 11.8145 4.82171 11.4438 4.82171 11.0652C4.82171 10.6865 5.07094 10.3159 5.52357 10.0216ZM8.64205 16.2503C7.81442 16.3191 6.94543 16.1563 6.32515 15.7533L5.52659 15.2344C5.353 15.1217 5.04281 14.8878 4.81618 14.5388V12.7536C4.87943 12.8016 4.94299 12.8497 5.01238 12.8948L5.81115 13.4137C6.47644 13.8463 7.35211 14.0846 8.27664 14.0846C9.20117 14.0846 10.0768 13.8463 10.7423 13.4137L11.5405 12.8948C11.6099 12.8496 11.6733 12.8015 11.7367 12.7536V13.7255C11.2936 13.8391 10.8844 14.0112 10.5341 14.2388L9.73601 14.7577C9.12584 15.1545 8.74917 15.6761 8.64205 16.2503ZM16.4603 20.0612C16.2336 20.4102 15.9235 20.644 15.7497 20.7568L14.9515 21.2757C13.8912 21.9647 12.1007 21.9643 11.0417 21.2759L10.2435 20.757C9.98952 20.5917 9.73194 20.312 9.53981 19.9949V18.2761C9.60305 18.3241 9.66661 18.3722 9.73601 18.4173L10.5341 18.9362C11.1996 19.3688 12.0753 19.6071 12.9998 19.6071C13.9245 19.6071 14.8001 19.3688 15.4659 18.9362L16.2642 18.4173C16.3336 18.372 16.3971 18.324 16.4604 18.2761V20.0612H16.4603ZM21.1752 14.5388C20.9484 14.8878 20.6384 15.1217 20.4648 15.2344L19.6662 15.7533C19.0481 16.155 18.1831 16.3182 17.3581 16.251C17.2513 15.6763 16.8745 15.1546 16.2642 14.7577L15.4659 14.2388C15.1134 14.0097 14.7011 13.8371 14.2548 13.7235V12.7536C14.318 12.8016 14.3816 12.8497 14.451 12.8948L15.2491 13.4137C15.9146 13.8463 16.7903 14.0846 17.7148 14.0846C18.6394 14.0846 19.515 13.8463 20.1803 13.4137L20.9791 12.8948C21.0485 12.8496 21.1119 12.8015 21.1753 12.7536V14.5388H21.1752Z" stroke="#D0CEC8" stroke-width="0.3" mask="url(#path-3-outside-1_201_1978)"/>
<path d="M11.7107 17.518L11.7106 17.518C11.3657 17.2934 11.1611 16.9553 11.1611 16.5878C11.1611 16.2199 11.3655 15.882 11.7107 15.6576M11.7107 17.518L11.7107 15.6576M11.7107 17.518L11.974 17.689C11.974 17.689 11.974 17.689 11.974 17.689C12.2576 17.8734 12.622 17.9734 12.9998 17.9734C13.3777 17.9734 13.7421 17.8735 14.026 17.689L14.026 17.689M11.7107 17.518L14.026 17.689M11.7107 15.6576L11.9739 15.4862M11.7107 15.6576L11.9739 15.4862M14.026 17.689L14.2895 17.5176C14.6344 17.2934 14.8386 16.9552 14.8386 16.5878C14.8386 16.2199 14.6343 15.8822 14.2893 15.6576L14.2893 15.6576M14.026 17.689L14.2893 15.6576M14.2893 15.6576L14.026 15.4862L14.0259 15.4862M14.2893 15.6576L14.0259 15.4862M14.0259 15.4862C13.7421 15.3018 13.3777 15.202 12.9998 15.202C12.622 15.202 12.2576 15.3019 11.974 15.4862L11.9739 15.4862M14.0259 15.4862L11.9739 15.4862M13.737 16.5063C13.7818 16.5355 13.8062 16.5617 13.8179 16.5743C13.8213 16.5779 13.8236 16.5804 13.825 16.5815L12.2226 16.5361M13.737 16.5063L13.4739 16.3353C13.2384 16.1821 12.7619 16.1819 12.526 16.3353L12.2627 16.5067C12.2469 16.517 12.2337 16.5269 12.2226 16.5361M13.737 16.5063L13.696 16.5692M13.737 16.5063L13.6964 16.6059C13.7063 16.5994 13.7148 16.5933 13.722 16.5876C13.7145 16.5818 13.7059 16.5756 13.6961 16.5692C13.6961 16.5692 13.6961 16.5692 13.696 16.5692M12.2226 16.5361C12.1903 16.563 12.1767 16.5841 12.1736 16.5922C12.1735 16.5926 12.1733 16.5931 12.1732 16.5934H12.1736C12.1739 16.5934 12.1742 16.5936 12.1746 16.5938L12.2454 16.6139C12.2435 16.6206 12.2413 16.6242 12.2412 16.6242C12.2412 16.6242 12.2414 16.6239 12.2419 16.6232C12.2429 16.6216 12.2454 16.6182 12.2501 16.613C12.256 16.6065 12.2651 16.5979 12.2781 16.5877C12.2653 16.5779 12.2558 16.5692 12.2488 16.5623C12.2439 16.5575 12.2403 16.5537 12.2369 16.55C12.2362 16.5493 12.2356 16.5487 12.2349 16.548L12.2348 16.5478C12.2332 16.5461 12.23 16.5428 12.2267 16.5397C12.2259 16.539 12.2245 16.5377 12.2226 16.5361ZM13.696 16.5692L13.433 16.3982L13.433 16.3982C13.3319 16.3324 13.1702 16.2953 13.0001 16.2953C12.83 16.2953 12.6682 16.3323 12.5669 16.3982L13.696 16.5692ZM12.3036 16.5696C12.3036 16.5696 12.3036 16.5696 12.3036 16.5696L12.263 16.5071L12.3036 16.5696ZM12.3037 16.6059L12.3036 16.6059L12.2627 16.6688L12.3038 16.606C12.3037 16.606 12.3037 16.606 12.3037 16.6059Z" fill="#D0CEC8" stroke="#D0CEC8" stroke-width="0.15"/>
<path d="M9.05646 11.0086C9.07706 11.0245 9.09111 11.0382 9.09986 11.0473L9.03942 11.0389C9.03971 11.0379 9.04003 11.0368 9.04037 11.0358L9.05646 11.0086ZM9.05646 11.0086C9.05197 11.0134 9.04817 11.0188 9.04514 11.0246C9.04409 11.0266 9.04317 11.0285 9.04236 11.0305M9.05646 11.0086L9.04236 11.0305M9.04236 11.0305C9.04253 11.0302 9.04268 11.03 9.0428 11.0298L9.04236 11.0305ZM7.51365 11.1218C7.51498 11.1203 7.51628 11.1188 7.51755 11.1171C7.52196 11.1115 7.52523 11.1057 7.52763 11.0999C7.52743 11.1002 7.52726 11.1005 7.52712 11.1007C7.52664 11.1014 7.52645 11.1017 7.52647 11.1017C7.52653 11.1017 7.52815 11.099 7.52979 11.094C7.53007 11.0932 7.53033 11.0923 7.53057 11.0914M7.51365 11.1218L7.53338 11.0711C7.53338 11.0772 7.53262 11.0841 7.53057 11.0914C7.53057 11.0914 7.53057 11.0914 7.53057 11.0914M7.51365 11.1218C7.49371 11.106 7.48019 11.0924 7.47149 11.0833L7.53057 11.0914M7.51365 11.1218L7.53057 11.0914M6.99578 11.9955L6.99583 11.9955L7.2589 12.1665C7.54273 12.3511 7.90694 12.4509 8.28476 12.4509C8.66257 12.4509 9.02697 12.3511 9.31079 12.1667L9.31083 12.1667L9.57413 11.9954C9.91923 11.7709 10.1237 11.433 10.1237 11.0653C10.1237 10.6976 9.91912 10.3596 9.57414 10.1351L9.57412 10.1351L9.31083 9.96391C9.02698 9.77928 8.66255 9.67962 8.28476 9.67962C7.90691 9.67962 7.54272 9.77962 7.25914 9.96389L7.25912 9.96391L6.99582 10.1351L6.9958 10.1351C6.6507 10.3596 6.44624 10.6976 6.44624 11.0653C6.44624 11.433 6.65082 11.7709 6.99578 11.9955ZM8.98112 11.047C8.99084 11.0533 8.99942 11.0594 9.00694 11.0651C8.99966 11.0708 8.99113 11.0769 8.9812 11.0834L8.98117 11.0834L8.71786 11.2546L8.71783 11.2546C8.61678 11.3204 8.45509 11.3575 8.2851 11.3576C8.11511 11.3576 7.95336 11.3206 7.85213 11.2546L7.85207 11.2546L7.58878 11.0834C7.58878 11.0834 7.58877 11.0834 7.58877 11.0834C7.57908 11.0771 7.5706 11.071 7.56319 11.0653C7.57044 11.0596 7.57893 11.0535 7.5888 11.0471L7.85229 10.8757L7.85235 10.8757C7.95335 10.8098 8.11504 10.7728 8.28504 10.7729C8.45504 10.7729 8.61677 10.8101 8.71781 10.8759L8.71788 10.8759L8.98109 11.047C8.9811 11.047 8.98111 11.047 8.98112 11.047ZM9.04308 11.0294C9.04333 11.0289 9.04348 11.0287 9.04347 11.0287L9.04308 11.0294ZM9.16828 11.112C9.17271 11.1053 9.1786 11.0953 9.18247 11.0838L8.79963 11.3803L8.79966 11.3803L9.0629 11.2092C9.06291 11.2092 9.06292 11.2092 9.06293 11.2091C9.09998 11.1851 9.12672 11.1616 9.14543 11.1411C9.15476 11.1309 9.16235 11.1211 9.16828 11.112Z" fill="#D0CEC8" stroke="#D0CEC8" stroke-width="0.15"/>
<path d="M16.9433 11.1218C16.9447 11.1203 16.946 11.1187 16.9473 11.117C16.9517 11.1114 16.9549 11.1056 16.9573 11.0999C16.9571 11.1002 16.9569 11.1005 16.9568 11.1007C16.9563 11.1014 16.9561 11.1017 16.9562 11.1017C16.9562 11.1017 16.9578 11.099 16.9595 11.094C16.9598 11.0932 16.96 11.0923 16.9603 11.0914M16.9433 11.1218L16.9631 11.0711C16.9631 11.0772 16.9623 11.0841 16.9603 11.0914C16.9603 11.0914 16.9603 11.0914 16.9603 11.0914M16.9433 11.1218C16.9234 11.106 16.9099 11.0924 16.9012 11.0833L16.9603 11.0914M16.9433 11.1218L16.9603 11.0914M18.4926 11.2092C18.5297 11.1851 18.5564 11.1616 18.5751 11.1411C18.5844 11.1309 18.592 11.1211 18.598 11.112C18.6029 11.1045 18.6096 11.093 18.6134 11.0799L18.6133 11.0798L18.4926 11.2092ZM18.4926 11.2092L18.2293 11.3803L18.4926 11.2092ZM16.4255 11.9955L16.4255 11.9955L16.6886 12.1665C16.9724 12.3511 17.3366 12.4509 17.7144 12.4509C18.0923 12.4509 18.4567 12.3511 18.7405 12.1667L18.7405 12.1667L19.0038 11.9954C19.3489 11.7709 19.5534 11.433 19.5534 11.0653C19.5534 10.6976 19.3488 10.3596 19.0038 10.1351L19.0038 10.1351L18.7405 9.96391C18.7405 9.96391 18.7405 9.96391 18.7405 9.96391C18.4567 9.77928 18.0922 9.67962 17.7144 9.67962C17.3366 9.67962 16.9724 9.77962 16.6888 9.96389L16.6888 9.96391L16.4255 10.1351L16.4255 10.1351C16.0804 10.3596 15.8759 10.6976 15.8759 11.0653C15.8759 11.433 16.0804 11.7709 16.4255 11.9955ZM18.4108 11.047C18.4205 11.0533 18.4291 11.0594 18.4367 11.0651C18.4294 11.0708 18.4208 11.0769 18.4109 11.0834L18.4109 11.0834L18.1476 11.2546L18.1475 11.2546C18.0464 11.3204 17.8847 11.3575 17.7147 11.3576C17.5448 11.3576 17.3831 11.3206 17.2818 11.2546L17.2818 11.2546L17.0185 11.0834C17.0185 11.0834 17.0185 11.0834 17.0185 11.0834C17.0088 11.0771 17.0003 11.071 16.9929 11.0653C17.0001 11.0596 17.0086 11.0535 17.0185 11.0471C17.0185 11.0471 17.0185 11.0471 17.0185 11.0471L17.282 10.8757L17.282 10.8757C17.383 10.8098 17.5447 10.7728 17.7147 10.7729C17.8846 10.7729 18.0464 10.8101 18.1475 10.8759L18.1476 10.8759L18.4108 11.047Z" fill="#D0CEC8" stroke="#D0CEC8" stroke-width="0.15"/>
</svg>
