<svg width="24" height="24" viewBox="0 0 24 24" fill="none" xmlns="http://www.w3.org/2000/svg">
<path d="M12 2C6.47733 2 2 6.47733 2 12C2 17.5227 6.47733 22 12 22C17.5227 22 22 17.5227 22 12C22 6.47733 17.5227 2 12 2ZM15.006 15.868C15.0808 16.0972 14.8198 16.289 14.6234 16.1493L12.1449 14.3855C12.0582 14.3237 11.9418 14.3237 11.8551 14.3855L9.37593 16.1493C9.17948 16.2891 8.91852 16.0973 8.99334 15.8681L9.92681 13.0084C9.96017 12.9062 9.92445 12.7941 9.83811 12.7301L7.36294 10.8938C7.16946 10.7502 7.27098 10.443 7.5119 10.443H10.6083C10.7163 10.443 10.8121 10.3736 10.8458 10.271L11.7659 7.46864C11.8409 7.24034 12.1633 7.23894 12.2403 7.46659L13.1889 10.2734C13.2232 10.375 13.3185 10.4433 13.4257 10.4433H16.4878C16.7287 10.4433 16.8302 10.7506 16.6367 10.8941L14.1616 12.7304C14.0752 12.7945 14.0395 12.9066 14.0728 13.0088L15.006 15.868Z" stroke="#D0CEC8" stroke-width="1.5"/>
</svg>
