<svg width="24" height="24" viewBox="0 0 24 24" fill="none" xmlns="http://www.w3.org/2000/svg">
<path d="M12 21.5H14.9775C15.019 20.1315 15.2195 19.379 15.5795 19.2425C19.3345 17.8175 22 14.217 22 10H2C2 14.1255 4.5515 17.6615 8.1785 19.147C8.5575 19.302 8.841 20.087 9.028 21.5H12Z" stroke="#D0CEC8" stroke-width="1.5" stroke-linejoin="round"/>
<path d="M7.22144 13.511C7.40144 14.105 7.63944 14.5955 7.93494 14.9825C8.24303 15.3794 8.6029 15.7332 9.00494 16.0345" stroke="#D0CEC8" stroke-width="1.5" stroke-linecap="round"/>
<path d="M12.6069 10.013C13.7159 7.7309 14.8195 5.44623 15.9179 3.15903C16.4429 2.05403 17.5079 1.78803 18.4904 2.20803C19.4729 2.62803 19.8704 3.82903 19.4579 4.66653C19.2029 5.18353 18.3379 6.96203 16.8629 10.0015" stroke="#D0CEC8" stroke-width="1.5" stroke-linecap="round"/>
</svg>
