<svg width="24" height="24" viewBox="0 0 24 24" fill="none" xmlns="http://www.w3.org/2000/svg">
<path d="M8 14H4C3.73478 14 3.48043 14.1054 3.29289 14.2929C3.10536 14.4804 3 14.7348 3 15V22" stroke="#D0CEC8" stroke-width="1.5" stroke-linejoin="round"/>
<path d="M16 14H20C20.2652 14 20.5196 14.1054 20.7071 14.2929C20.8946 14.4804 21 14.7348 21 15V22" stroke="#D0CEC8" stroke-width="1.5" stroke-linejoin="round"/>
<path d="M9.99999 12H14C14 12 16.583 9.161 16 7.5C15.6225 6.425 14.781 5.83 14 5C13.219 4.17 12 3 12 3C12 3 10.781 4.17 9.99999 5C9.21899 5.83 8.37749 6.425 7.99999 7.5C7.41699 9.161 9.99999 12 9.99999 12Z" stroke="#D0CEC8" stroke-width="1.5" stroke-linejoin="round"/>
<path d="M2 22H22" stroke="#D0CEC8" stroke-width="1.5" stroke-linecap="round" stroke-linejoin="round"/>
<path d="M8 12H16V22H8V12Z" stroke="#D0CEC8" stroke-width="1.5" stroke-linecap="round" stroke-linejoin="round"/>
<path d="M12 17V22" stroke="#D0CEC8" stroke-width="1.5" stroke-linecap="round"/>
<path d="M12 2V3.5" stroke="#D0CEC8" stroke-width="1.5" stroke-linecap="round"/>
<path d="M5 12V14" stroke="#D0CEC8" stroke-width="1.5" stroke-linecap="round"/>
<path d="M19 12V14" stroke="#D0CEC8" stroke-width="1.5" stroke-linecap="round"/>
<path d="M10 22H14" stroke="#D0CEC8" stroke-width="1.5" stroke-linecap="round"/>
</svg>
