<svg width="24" height="24" viewBox="0 0 24 24" fill="none" xmlns="http://www.w3.org/2000/svg">
<g clip-path="url(#clip0_201_1993)">
<path d="M3.0781 8.79449L5.60972 4.99724L5.35472 4.82774L5.10047 4.65787L2.56885 8.45512L2.82385 8.62462L3.0781 8.79449Z" fill="white"/>
<path d="M3.77331 9.25761L4.02719 9.42749L6.55806 5.63024L6.30419 5.46036L6.04919 5.29086L3.51831 9.08811L3.77331 9.25761Z" fill="white"/>
<path d="M4.72153 9.89024L4.97654 10.0601L7.50778 6.26324L7.25316 6.09374L6.99891 5.92349L4.46729 9.72074L4.72153 9.89024Z" fill="white"/>
<path d="M18.0968 15.8809L18.351 16.0504L19.5319 14.2793L19.2777 14.1098L19.023 13.9399L17.8425 15.711L18.0968 15.8809Z" fill="white"/>
<path d="M20.9213 15.2059L19.7412 16.9766L19.9951 17.1469L20.2501 17.3164L21.4306 15.5449L21.1763 15.3754L20.9213 15.2059Z" fill="white"/>
<path d="M19.3002 16.683L20.4815 14.9123L20.2265 14.7424L19.9722 14.5729L18.7917 16.344L19.046 16.5135L19.3002 16.683Z" fill="white"/>
<path d="M17.9277 16.1351L17.6727 15.9656L16.4922 17.7371L16.7461 17.9062L17.0011 18.0761L18.1816 16.305L17.9277 16.1351Z" fill="white"/>
<path d="M18.8767 16.7681L18.6217 16.5983L17.4412 18.3698L17.6954 18.5396L17.9504 18.7091L19.1309 16.938L18.8767 16.7681Z" fill="white"/>
<path d="M19.5709 17.2312L18.3904 19.0027L18.6446 19.1726L18.8989 19.3417L20.0801 17.5706L19.8251 17.4007L19.5709 17.2312Z" fill="white"/>
<path d="M2.82385 15.3754L2.56885 15.5449L5.10047 19.3417L5.35472 19.1726L5.60972 19.0027L3.0781 15.2059L2.82385 15.3754Z" fill="white"/>
<path d="M5.12241 16.7681L4.86816 16.938L6.04904 18.7091L6.30404 18.5396L6.55791 18.3698L5.37741 16.5983L5.12241 16.7681Z" fill="white"/>
<path d="M4.72153 14.1098L4.46729 14.2793L6.99891 18.0761L7.25316 17.9063L7.50778 17.7371L4.97654 13.9399L4.72153 14.1098Z" fill="white"/>
<path d="M3.51831 14.9123L4.69919 16.683L4.95344 16.5135L5.20844 16.344L4.02719 14.5729L3.77331 14.7424L3.51831 14.9123Z" fill="white"/>
<path d="M19.8251 6.59924L20.0801 6.42937L18.8989 4.65787L18.6446 4.82774L18.3904 4.99724L19.5716 6.76874L19.8251 6.59924Z" fill="white"/>
<path d="M17.9277 7.86487L18.1816 7.69499L17.0011 5.92349L16.7461 6.09374L16.4922 6.26324L17.6727 8.03437L17.9277 7.86487Z" fill="white"/>
<path d="M19.7412 7.02337L20.9213 8.79449L21.1763 8.62462L21.4306 8.45512L20.2501 6.68399L19.9951 6.85349L19.7412 7.02337Z" fill="white"/>
<path d="M20.2263 9.25761L20.4813 9.08811L17.9504 5.29086L17.6954 5.46036L17.4412 5.63024L19.972 9.42749L20.2263 9.25761Z" fill="white"/>
<path d="M19.2777 9.89025L19.5319 9.72075L18.351 7.94925L18.0968 8.11912L17.8425 8.289L19.023 10.0601L19.2777 9.89025Z" fill="white"/>
<path d="M12 0.75C5.787 0.75 0.75 5.787 0.75 12C0.75 18.213 5.787 23.25 12 23.25C18.213 23.25 23.25 18.213 23.25 12C23.25 5.787 18.213 0.75 12 0.75ZM12 22.5C6.21037 22.5 1.5 17.7896 1.5 12C1.5 6.21037 6.21037 1.5 12 1.5C17.7896 1.5 22.5 6.21037 22.5 12C22.5 17.7896 17.7896 22.5 12 22.5Z" fill="white"/>
<path d="M11.9999 7.06537C9.27892 7.06537 7.06567 9.27899 7.06567 12C7.06567 14.721 9.27892 16.9346 11.9999 16.9346C14.7209 16.9346 16.9342 14.721 16.9342 12C16.9342 9.27899 14.7209 7.06537 11.9999 7.06537ZM15.1642 11.3674C14.9149 11.2011 14.6353 11.0856 14.3413 11.0274C14.0474 10.9692 13.7448 10.9695 13.451 11.0282C13.1572 11.087 12.8778 11.203 12.6288 11.3698C12.3798 11.5365 12.1661 11.7507 11.9999 12C11.6641 12.5035 11.1421 12.853 10.5487 12.9717C9.95523 13.0904 9.33894 12.9686 8.8353 12.633C8.3568 12.3142 8.01696 11.8259 7.8843 11.2665C8.23267 9.30824 9.94342 7.81537 12.0003 7.81537C14.3073 7.81537 16.1845 9.69262 16.1845 12C16.1845 12.2512 16.1587 12.4961 16.1155 12.7354C15.9833 12.1752 15.6433 11.6862 15.1642 11.3674Z" fill="white"/>
</g>
<defs>
<clipPath id="clip0_201_1993">
<rect width="24" height="24" fill="white"/>
</clipPath>
</defs>
</svg>
