<svg width="24" height="24" viewBox="0 0 24 24" fill="none" xmlns="http://www.w3.org/2000/svg">
<path d="M7.20005 4L4.80005 7.2V18.4C4.80005 18.8243 4.96862 19.2313 5.26868 19.5314C5.56874 19.8314 5.9757 20 6.40005 20H17.6C18.0244 20 18.4314 19.8314 18.7314 19.5314C19.0315 19.2313 19.2 18.8243 19.2 18.4V7.2L16.8 4H7.20005Z" stroke="#59A47E" stroke-width="1.5" stroke-linecap="round" stroke-linejoin="round"/>
<path d="M4.80005 7.2H19.2" stroke="#59A47E" stroke-width="1.5" stroke-linecap="round" stroke-linejoin="round"/>
<path d="M15.2 10.4C15.2 11.2487 14.8629 12.0626 14.2628 12.6627C13.6627 13.2629 12.8487 13.6 12 13.6C11.1514 13.6 10.3374 13.2629 9.73731 12.6627C9.13719 12.0626 8.80005 11.2487 8.80005 10.4" stroke="#59A47E" stroke-width="1.5" stroke-linecap="round" stroke-linejoin="round"/>
</svg>
