<svg width="64" height="64" viewBox="0 0 64 64" fill="none" xmlns="http://www.w3.org/2000/svg">
<path d="M5.33334 16H58.6667V26.6667L56.8027 27.7867C55.3521 28.657 53.6923 29.1168 52.0007 29.1168C50.3091 29.1168 48.6492 28.657 47.1987 27.7867L45.3333 26.6667L43.4693 27.7867C42.0188 28.657 40.359 29.1168 38.6673 29.1168C36.9757 29.1168 35.3159 28.657 33.8653 27.7867L32 26.6667L30.136 27.7867C28.6853 28.6573 27.0252 29.1172 25.3333 29.1172C23.6415 29.1172 21.9814 28.6573 20.5307 27.7867L18.6667 26.6667L16.8013 27.7867C15.3509 28.6568 13.6914 29.1164 12 29.1164C10.3086 29.1164 8.64908 28.6568 7.19868 27.7867L5.33334 26.6667V16Z" stroke="#E42016" stroke-width="2.5" stroke-linecap="round" stroke-linejoin="round"/>
<path d="M10.6667 29.9853V58.6666H53.3334V29.3333" stroke="#E42016" stroke-width="2.5" stroke-linecap="round" stroke-linejoin="round"/>
<path d="M10.6667 15.7626V5.33331H53.3334V16" stroke="#E42016" stroke-width="2.5" stroke-linecap="round" stroke-linejoin="round"/>
<path d="M25.3333 42.6666H38.6667V58.6666H25.3333V42.6666Z" stroke="#E42016" stroke-width="2.5" stroke-linecap="round" stroke-linejoin="round"/>
</svg>
