<svg width="64" height="64" viewBox="0 0 64 64" fill="none" xmlns="http://www.w3.org/2000/svg">
<path d="M45.3334 40V38.652C45.3334 37.595 45.7533 36.5813 46.5007 35.8339C47.2481 35.0865 48.2618 34.6666 49.3187 34.6666V34.6666C50.3748 34.6666 51.3877 35.0858 52.1349 35.832C52.8822 36.5783 53.3027 37.5906 53.3041 38.6466L53.3201 49.58C53.3218 50.7726 53.0884 51.9539 52.6332 53.0563C52.178 54.1587 51.51 55.1605 50.6673 56.0044C49.8246 56.8484 48.8237 57.5179 47.722 57.9747C46.6203 58.4315 45.4394 58.6666 44.2467 58.6666H34.1961C31.2945 58.6667 28.4332 57.9868 25.8418 56.6816C23.2503 55.3763 21.0007 53.4821 19.2734 51.1506L13.5867 43.4746C13.1171 42.8408 12.8459 42.082 12.8075 41.2941C12.769 40.5061 12.965 39.7245 13.3707 39.048V39.048C13.6827 38.528 14.109 38.0859 14.6174 37.7554C15.1258 37.4249 15.7028 37.2147 16.3047 37.1406C16.9065 37.0666 17.5173 37.1307 18.0906 37.3282C18.664 37.5256 19.1848 37.8511 19.6134 38.28L21.3334 40V21.3333C21.3334 20.2724 21.7548 19.255 22.505 18.5049C23.2551 17.7547 24.2725 17.3333 25.3334 17.3333C26.3943 17.3333 27.4117 17.7547 28.1618 18.5049C28.912 19.255 29.3334 20.2724 29.3334 21.3333V37.1666V28.0346C29.3334 26.9646 29.7585 25.9384 30.5151 25.1817C31.2718 24.4251 32.298 24 33.3681 24V24C33.898 23.9998 34.4228 24.104 34.9125 24.3067C35.4021 24.5094 35.8471 24.8066 36.2219 25.1812C36.5967 25.5559 36.894 26.0007 37.0968 26.4903C37.2997 26.9799 37.4041 27.5047 37.4041 28.0346V38.6666V37.1986C37.4041 36.1472 37.8217 35.1388 38.565 34.3952C39.3084 33.6516 40.3166 33.2337 41.3681 33.2333V33.2333C42.4197 33.2333 43.4283 33.6511 44.172 34.3947C44.9156 35.1384 45.3334 36.147 45.3334 37.1986V40Z" stroke="#E42016" stroke-width="2.5" stroke-linecap="round" stroke-linejoin="round"/>
<path d="M42.6666 5.33331V16" stroke="#E42016" stroke-width="2.5" stroke-linecap="round"/>
<path d="M21.3333 26.6666H8V21.3333C10.6667 21.3333 13.3333 19.3333 13.2987 16C13.264 12.6666 10.6667 10.6666 8 10.6666V5.33331H56V10.6666C53.3333 10.6666 50.736 12.6666 50.7013 16C50.6667 19.3333 53.3333 21.3333 56 21.3333V26.6666H37.3333" stroke="#E42016" stroke-width="2.5" stroke-linecap="round" stroke-linejoin="round"/>
</svg>
