<svg width="62" height="41" viewBox="0 0 62 41" fill="none" xmlns="http://www.w3.org/2000/svg">
<path d="M15 39C16.4145 39 17.771 38.4381 18.7712 37.4379C19.7714 36.4377 20.3333 35.0812 20.3333 33.6667C20.3333 32.2522 19.7714 30.8957 18.7712 29.8955C17.771 28.8953 16.4145 28.3334 15 28.3334C13.5855 28.3334 12.229 28.8953 11.2288 29.8955C10.2286 30.8957 9.66666 32.2522 9.66666 33.6667C9.66666 35.0812 10.2286 36.4377 11.2288 37.4379C12.229 38.4381 13.5855 39 15 39V39ZM45.6667 39C47.0811 39 48.4377 38.4381 49.4379 37.4379C50.4381 36.4377 51 35.0812 51 33.6667C51 32.2522 50.4381 30.8957 49.4379 29.8955C48.4377 28.8953 47.0811 28.3334 45.6667 28.3334C44.2522 28.3334 42.8956 28.8953 41.8954 29.8955C40.8952 30.8957 40.3333 32.2522 40.3333 33.6667C40.3333 35.0812 40.8952 36.4377 41.8954 37.4379C42.8956 38.4381 44.2522 39 45.6667 39V39Z" stroke="#E42016" stroke-width="2.5" stroke-linejoin="round"/>
<path d="M40.3333 33.6667V11H51.7613L60.3333 22.3334V33.6667H52.0813M9.66666 33.6667H1.66666V1.66669H40.3333V33.6667H20.3333H9.66666Z" stroke="#E42016" stroke-width="2.5" stroke-linecap="round" stroke-linejoin="round"/>
</svg>
